
<!-- creater bucca prezdz......... -->
<svg xmlns="http://www.w3.org/2000/svg" xml:space="preserve" width="91.4398mm" height="91.4398mm" version="1.1" style="shape-rendering:geometricPrecision; text-rendering:geometricPrecision; image-rendering:optimizeQuality; fill-rule:evenodd; clip-rule:evenodd"
viewBox="0 0 9143.98 9143.98"
 xmlns:xlink="http://www.w3.org/1999/xlink"
 xmlns:xodm="http://www.corel.com/coreldraw/odm/2003">
 <defs>
 
  <style type="text/css">
   <![CDATA[
    .fil0 {fill:#DD4C3B}
    .fil1 {fill:#DD4C3B;fill-rule:nonzero}
   ]]>
  </style>


 </defs>
 <g id="Layer_x0020_1">
  <metadata id="CorelCorpID_0Corel-Layer"/>
  <path class="fil0" d="M3042.7 4813.06c0,14.46 7.2,45.17 12.03,56.57 7.53,17.77 15.43,31.3 27.91,43.95 100.37,101.72 234.45,7.97 234.45,-93.99 0,-162.39 -198.3,-206.36 -261.33,-65.33 -5.97,13.36 -13.06,39.86 -13.06,58.8z"/>
  <g id="_2738976091968">
   <path class="fil0" d="M2546.19 4303.47c81.6,0 94.97,-26.25 139.96,-82.15 24.87,-30.9 82.85,-71.37 137.69,-71.37 55.61,0 90.25,5.32 133.98,39.15 164.7,127.36 14.5,295.71 143.59,395.39 85.65,66.13 215.68,-2.77 215.68,-114.42l0 -117.7c-1.54,-42.53 -7.04,-81.28 -24.2,-142.29 -28.96,-102.95 -91.6,-188.18 -171.31,-253.35 -66.77,-54.59 -173.89,-94.24 -271.61,-94.24 -129.02,0 -203.61,25.78 -298.68,99.83 -35.54,27.69 -35.63,32.32 -61.46,59.41 -9.35,9.82 -17.9,21.37 -26.25,32.55 -9.63,12.87 -15.32,20.48 -23.87,34.93 -53.56,90.59 13.16,214.26 106.48,214.26z"/>
   <path class="fil0" d="M2363.26 4502.74l0 320.12c0,69.53 66.26,133.93 120.86,133.93 43.81,0 85.17,-8.38 114.9,-45.17 20.24,-25.05 35.36,-57.32 35.36,-101.83l0 -297.25c0,-81.74 -52.85,-145.04 -132,-147.99 -78.56,-2.93 -139.12,65.95 -139.12,138.19z"/>
   <path class="fil1" d="M5450.77 3885.44c18.86,-18.86 41.32,-28.31 67.38,-28.31 26.07,0 48.53,9.45 67.39,28.31 18.88,18.88 28.31,41.34 28.31,67.39 0,26.06 -9.43,48.52 -28.31,67.4 -18.86,18.86 -41.32,28.31 -67.39,28.31 -26.06,0 -48.52,-9.45 -67.38,-28.31 -18.88,-18.88 -28.31,-41.34 -28.31,-67.4 0,-26.05 9.43,-48.51 28.31,-67.39z"/>
   <path class="fil1" d="M4234.34 4829.61c-84.02,84.01 -185.33,126.02 -303.94,126.02 -118.62,0 -219.93,-42.01 -303.93,-126.02 -84.02,-84.02 -126.03,-185.33 -126.03,-303.94 0,-118.62 42.01,-219.93 126.03,-303.95 84,-84.01 185.31,-126.02 303.93,-126.02 118.61,0 219.92,42.01 303.94,126.02 84.01,84.02 126.02,185.33 126.02,303.95 0,118.61 -42.01,219.92 -126.02,303.94zm-303.94 -65.37c65.6,0 121.76,-23.36 168.48,-70.09 46.73,-46.73 70.09,-102.88 70.09,-168.48 0,-66.49 -23.36,-123.11 -70.09,-169.83 -46.72,-46.73 -102.88,-70.09 -168.48,-70.09 -65.59,0 -121.76,23.36 -168.48,70.09 -46.73,46.72 -70.09,103.34 -70.09,169.83 0,65.6 23.36,121.75 70.09,168.48 46.72,46.73 102.89,70.09 168.48,70.09z"/>
   <path class="fil0" d="M5422.46 4859.35l0.72 13.42c2.52,20.95 11.72,39.34 27.59,55.21 15.97,15.97 34.56,25.21 55.74,27.65l23.29 0c21.18,-2.44 39.75,-11.66 55.74,-27.65 15.87,-15.87 25.06,-34.26 27.59,-55.21l0.72 -12.2 0 -1.22 0 -673.47 -0.23 -8.43c-1.54,-23.76 -10.91,-44.5 -28.08,-62.14 -18.84,-19.38 -41.32,-29.1 -67.39,-29.1 -26.06,0 -48.52,9.72 -67.38,29.1 -17.17,17.66 -26.52,38.38 -28.08,62.14l-0.23 5.91 0 675.99z"/>
   <path class="fil0" d="M5855.28 4767.02l-11.34 13c-16.73,21.33 -26.46,45.27 -29.26,71.82 -2.82,26.74 2.17,49.14 14.99,67.18l16.46 17.32c17.14,13.49 38.41,18.74 63.85,15.78 25.24,-2.95 47.98,-13.2 68.27,-30.78l11.27 -10.81 1.08 -1.13 230.71 -242.75 230.72 242.75 12.34 11.94c20.3,17.59 43.03,27.83 68.27,30.78 25.41,2.96 46.71,-2.29 63.85,-15.78l16.47 -17.32c12.81,-18.04 17.8,-40.41 14.98,-67.18 -2.79,-26.55 -12.53,-50.47 -29.25,-71.82l-10.26 -11.88 -1.08 -1.12 -230.71 -242.74 228.79 -240.73 7.28 -7.99c19.88,-23.23 31.57,-49.46 35.02,-78.64 3.78,-32.03 -3.53,-57.77 -21.95,-77.17 -18.43,-19.39 -42.91,-27.07 -73.35,-23.1 -27.74,3.65 -52.66,15.95 -74.74,36.87l-5.37 5.31 -231.01 243.06 -228.77 -240.73 -7.6 -7.64c-22.08,-20.94 -47.02,-33.24 -74.74,-36.87 -30.45,-3.98 -54.92,3.71 -73.36,23.1 -18.42,19.4 -25.73,45.14 -21.94,77.17 3.46,29.2 15.14,55.41 35.02,78.64l5.07 5.66 231 243.04 -230.71 242.76z"/>
   <path class="fil0" d="M5282.28 3954.05l0 -1.22 0 -1.22 0 -5.07c0,-3.88 -0.21,-5.37 -0.62,-5.08 -2.4,-21.27 -11.6,-39.94 -27.68,-56.02 -18.86,-18.86 -41.33,-28.31 -67.39,-28.31 -26.06,0 -48.53,9.45 -67.39,28.31 -18.58,18.59 -28.02,40.64 -28.31,66.17l0 -1.21 0 1.21 0 0.01 0 1.21 0 1.22 0 214.44c-72.78,-48.52 -152.3,-72.79 -238.57,-72.79 -118.61,0 -219.92,42.01 -303.93,126.02 -84.02,84.02 -126.03,185.33 -126.03,303.95 0,118.61 42.01,219.92 126.03,303.94 84.01,84.01 185.32,126.02 303.93,126.02 118.62,0 219.94,-42.01 303.95,-126.02 84,-84 126.01,-185.33 126.01,-303.94l0 -571.62zm-429.96 333.04c65.6,0 121.76,23.37 168.49,70.09 46.72,46.73 70.08,102.88 70.08,168.49 0,65.6 -23.36,121.75 -70.08,168.48 -46.73,46.73 -102.89,70.09 -168.49,70.09 -65.58,0 -121.76,-23.36 -168.48,-70.09 -46.73,-46.73 -70.09,-102.88 -70.09,-168.48 0,-65.61 23.36,-121.76 70.09,-168.49 46.72,-46.72 102.9,-70.09 168.48,-70.09z"/>
  </g>
 </g>
 <defs> <linearGradient id="paint0_linear_236_1056" x1="14" y1="26" x2="179" y2="179.5" gradientUnits="userSpaceOnUse"> <stop stop-color="#E9B8FF"/> <stop offset="1" stop-color="#F9ECFF"/> </linearGradient> <clipPath id="clip0_236_1056"> <rect width="200" height="200" fill="white"/> </clipPath> </defs>
</svg>
